<svg fill="none" height="24" viewBox="0 0 24 24" width="24" xmlns="http://www.w3.org/2000/svg"><path clip-rule="evenodd" d="m11.7501 6.40636c-1.4803 0-1.6279.15614-2.394.15614-.63841 0-2.55365-1.5625-3.51125-1.5625-.95761 0-2.07481.5625-2.07481 2.1875v1.875c.00193.49219.18077 2.0009.88071 1.5977-.82752.978-.91112 2.1184-.89975 3.2224-.22288.0644-.45028.137-.67097.2124-.68389.2339-1.40918.5321-1.73683.7437-.347959.2247-.447861.689-.22314 1.0369.22472.348.68897.4479 1.03692.2232.15622-.1009.72125-.3495 1.40834-.5844.07592-.026.15199-.0513.22766-.0758.04627.4338.1611.8298.3318 1.1906l-.02358.0124c-.40972.2165-.78991.4651-1.03231.6236-.04195.0274-.07977.0521-.1129.0735-.34796.2247-.44786.689-.22314 1.0369.22472.348.68897.4479 1.03693.2232.04112-.0266.08494-.0552.13119-.0854.24533-.1601.55902-.3649.90102-.5456.08019-.0424.15736-.0808.23118-.1154 1.7303 1.6224 4.83674 2.1476 6.71693 2.1476 1.8801 0 4.9866-.5252 6.7169-2.1476.0738.0346.1509.073.2311.1154.342.1807.6557.3855.901.5456.0463.0302.0901.0588.1312.0854.348.2247.8122.1248 1.037-.2232.2247-.3479.1248-.8122-.2232-1.0369-.0331-.0214-.0709-.0461-.1129-.0735-.2424-.1585-.6226-.4071-1.0323-.6236l-.0235-.0124c.1707-.3609.2855-.7568.3318-1.1907.0758.0245.152.0499.228.0759.6871.2349 1.2522.4835 1.4084.5844.3479.2247.8122.1248 1.0369-.2232.2247-.3479.1248-.8122-.2231-1.0369-.3277-.2116-1.053-.5098-1.7369-.7437-.2208-.0755-.4483-.148-.6713-.2125.0113-1.104-.0723-2.2443-.8998-3.2223.7.4032.8788-1.10551.8808-1.5977v-1.87489c0-1.625-1.1172-2.1875-2.0749-2.1875-.9576 0-2.8728 1.56239-3.5112 1.56239-.7661 0-.9136-.15614-2.394-.15614zm-.6756 9.19404c.2026-.069.4417-.1004.6756-.1004s.4729.0314.6756.1004c.0994.0338.221.0872.328.1734.1075.0865.2464.2468.2464.4762s-.1389.3897-.2464.4762c-.107.0862-.2286.1396-.328.1734-.2027.069-.4417.1004-.6756.1004s-.473-.0314-.6756-.1004c-.0994-.0338-.221-.0872-.3281-.1734-.1075-.0865-.2463-.2468-.2463-.4762s.1388-.3897.2463-.4762c.1071-.0862.2287-.1396.3281-.1734zm2.8456-3.0999c.1365-.2284.4059-.5005.81-.5005s.6735.2721.8099.5005c.1423.2382.2101.5269.2101.812s-.0678.5738-.2101.812c-.1364.2284-.4058.5005-.8099.5005s-.6735-.2721-.81-.5005c-.1423-.2382-.21-.5269-.21-.812s.0677-.5738.21-.812zm-5.95994 0c.13642-.2284.40583-.5005.80994-.5005s.67352.2721.80994.5005c.1423.2382.21007.5269.21007.812s-.06777.5738-.21007.812c-.13642.2284-.40583.5005-.80994.5005s-.67352-.2721-.80994-.5005c-.1423-.2382-.21007-.5269-.21007-.812s.06777-.5738.21007-.812z" fill="#1c274c" fill-rule="evenodd"/></svg>